<?xml version="1.0" standalone="no"?>
<!DOCTYPE svg PUBLIC "-//W3C//DTD SVG 20010904//EN"
 "http://www.w3.org/TR/2001/REC-SVG-20010904/DTD/svg10.dtd">
<svg version="1.0" xmlns="http://www.w3.org/2000/svg"
 width="100.000000pt" height="100.000000pt" viewBox="0 0 100.000000 100.000000"
 preserveAspectRatio="xMidYMid meet">

<g transform="translate(0.000000,100.000000) scale(0.100000,-0.100000)"
fill="#000000" stroke="none">
<path d="M447 907 c-48 -49 -201 -220 -316 -351 l-51 -60 2 -185 3 -186 30 0
30 0 5 171 5 171 65 73 c36 40 73 82 83 94 19 21 55 61 139 153 l48 52 40 -46
c22 -26 39 -50 38 -54 -2 -4 -48 -55 -103 -114 -55 -59 -119 -128 -142 -154
l-43 -46 3 -150 2 -150 299 -3 c233 -2 301 1 308 10 4 7 8 90 8 184 l0 171
-156 179 c-190 218 -243 274 -256 274 -5 0 -24 -15 -41 -33z m277 -336 l96
-109 0 -136 0 -136 -230 0 -230 0 0 103 0 103 131 142 c73 78 133 142 135 142
1 0 45 -49 98 -109z"/>
</g>
</svg>
